<?xml version="1.0" encoding="utf-8"?>
<!-- Generator: Adobe Illustrator 20.1.0, SVG Export Plug-In . SVG Version: 6.00 Build 0)  -->
<svg version="1.1" xmlns="http://www.w3.org/2000/svg" xmlns:xlink="http://www.w3.org/1999/xlink" x="0px" y="0px"
	 viewBox="0 0 16 16" style="fill: #666; enable-background:new 0 0 16 16;" xml:space="preserve">
<style type="text/css">
	.st0{display:none;}
	.st1{display:inline;}
</style>
<g id="图层_1" class="st0">
	<g class="st1">
		<path d="M12.4,1H3.6C2.7,1,2,1.7,2,2.6v10.8C2,14.3,2.7,15,3.6,15h8.8c0.9,0,1.6-0.7,1.6-1.6c0-0.3-0.2-0.5-0.5-0.5
			S13,13.1,13,13.4c0,0.3-0.3,0.6-0.6,0.6H3.6C3.3,14,3,13.7,3,13.4V2.6C3,2.3,3.3,2,3.6,2h8.8C12.7,2,13,2.3,13,2.6v3.2
			c0,0.3,0.2,0.5,0.5,0.5S14,6.1,14,5.8V2.6C14,1.7,13.3,1,12.4,1z"/>
		<path d="M11.5,13c0.3,0,0.5-0.2,0.5-0.5V11h1.5c0.3,0,0.5-0.2,0.5-0.5c0-0.3-0.2-0.5-0.5-0.5H12V8.5C12,8.2,11.8,8,11.5,8
			S11,8.2,11,8.5V10H9.5C9.2,10,9,10.2,9,10.5C9,10.8,9.2,11,9.5,11H11v1.5C11,12.8,11.2,13,11.5,13z"/>
	</g>
</g>
<g id="图层_2" class="st0">
	<g class="st1">
		<path d="M8,0C3.6,0,0,3.6,0,8s3.6,8,8,8s8-3.6,8-8S12.4,0,8,0z M8,15c-3.9,0-7-3.1-7-7s3.1-7,7-7s7,3.1,7,7S11.9,15,8,15z"/>
		<path d="M11.2,4.3c-0.1,0-0.1,0-0.2,0L4.8,6.4c-0.5,0.2-0.4,0.9,0.1,1L8,8l0.6,3.2c0.1,0.3,0.3,0.4,0.5,0.4c0.2,0,0.4-0.1,0.5-0.3
			l2.1-6.3C11.8,4.6,11.5,4.3,11.2,4.3z M9.2,9.1L9,7.8L8.8,7.2L8.2,7L6.9,6.8l3.5-1.2L9.2,9.1z"/>
	</g>
</g>
<g id="图层_3" class="st0">
	<g class="st1">
		<path d="M8,0C3.6,0,0,3.6,0,8s3.6,8,8,8s8-3.6,8-8S12.4,0,8,0z M8,15c-3.9,0-7-3.1-7-7s3.1-7,7-7s7,3.1,7,7S11.9,15,8,15z"/>
		<path d="M10,7H7.2l2.2-2.5C9.5,4.3,9.5,4,9.3,3.8C9.1,3.6,8.8,3.6,8.6,3.8L5.7,7.2C5.6,7.3,5.5,7.5,5.6,7.7C5.7,7.9,5.9,8,6.1,8H9
			l-1.9,2.5C7,10.7,7,11,7.2,11.2c0.1,0.1,0.2,0.1,0.3,0.1c0.2,0,0.3-0.1,0.4-0.2l2.5-3.3c0.1-0.2,0.1-0.4,0-0.5
			C10.4,7.1,10.2,7,10,7z"/>
	</g>
</g>
<g id="图层_4" class="st0">
	<path class="st1" d="M8,1l6,0.9v7.2c0,1.4-0.8,2.8-2,3.5l-4,2.3l-4-2.3c-1.2-0.7-2-2-2-3.5V1.9L8,1 M8,0L1,1v8.1
		c0,1.8,1,3.5,2.5,4.3L8,16l4.5-2.6C14,12.5,15,10.9,15,9.1V1L8,0L8,0z"/>
	<path class="st1" d="M8,5.9c-0.3,0-0.6,0-1-0.1L4.9,5C4.6,5,4.5,4.7,4.6,4.4S4.9,4,5.2,4.1l2.2,0.7c0.4,0.1,0.9,0.1,1.3,0l2.2-0.7
		c0.3-0.1,0.5,0.1,0.6,0.3C11.6,4.7,11.4,5,11.2,5L9,5.7C8.7,5.8,8.4,5.9,8,5.9z"/>
</g>
<g id="图层_5">
	<g>
		<path d="M8,0C3.6,0,0,3.6,0,8s3.6,8,8,8s8-3.6,8-8S12.4,0,8,0z M8,15c-3.9,0-7-3.1-7-7s3.1-7,7-7s7,3.1,7,7S11.9,15,8,15z"/>
		<path d="M11,4l0.5-0.8c0.1-0.2,0.1-0.5-0.2-0.7c-0.2-0.1-0.5-0.1-0.7,0.2l-0.5,0.8C9.5,3.2,8.7,3,8,3C5.2,3,3,5.2,3,8
			c0,0.3,0.2,0.5,0.5,0.5S4,8.3,4,8c0-2.2,1.8-4,4-4c0.6,0,1.1,0.1,1.6,0.3l-2,3.4C7.4,8,7.5,8.3,7.7,8.4c0.1,0,0.2,0.1,0.3,0.1
			c0.2,0,0.3-0.1,0.4-0.2l2-3.4C11.4,5.6,12,6.7,12,8c0,0.3,0.2,0.5,0.5,0.5S13,8.3,13,8C13,6.3,12.2,4.9,11,4z"/>
	</g>
</g>
<g id="图层_6" class="st0">
	<g id="EWFNcy.tif" class="st1">
		
			<image style="overflow:visible;" width="452" height="1894" id="Layer_0_4_" xlink:href="6C725BD96D2659E2.png"  transform="matrix(5.752213e-02 0 0 5.752213e-02 -29 -86.0984)">
		</image>
	</g>
</g>
</svg>
