<?xml version="1.0" encoding="utf-8"?>
<!-- Generator: Adobe Illustrator 20.1.0, SVG Export Plug-In . SVG Version: 6.00 Build 0)  -->
<svg version="1.1" id="图层_1" xmlns="http://www.w3.org/2000/svg" xmlns:xlink="http://www.w3.org/1999/xlink" x="0px" y="0px"
	 viewBox="0 0 16 16" style="fill: #666; enable-background:new 0 0 16 16;" xml:space="preserve">
<g>
	<path d="M12.4,1H3.6C2.7,1,2,1.7,2,2.6v10.8C2,14.3,2.7,15,3.6,15h8.8c0.9,0,1.6-0.7,1.6-1.6c0-0.3-0.2-0.5-0.5-0.5
		S13,13.1,13,13.4c0,0.3-0.3,0.6-0.6,0.6H3.6C3.3,14,3,13.7,3,13.4V2.6C3,2.3,3.3,2,3.6,2h8.8C12.7,2,13,2.3,13,2.6v3.2
		c0,0.3,0.2,0.5,0.5,0.5S14,6.1,14,5.8V2.6C14,1.7,13.3,1,12.4,1z"/>
	<path d="M11.5,13c0.3,0,0.5-0.2,0.5-0.5V11h1.5c0.3,0,0.5-0.2,0.5-0.5c0-0.3-0.2-0.5-0.5-0.5H12V8.5C12,8.2,11.8,8,11.5,8
		S11,8.2,11,8.5V10H9.5C9.2,10,9,10.2,9,10.5C9,10.8,9.2,11,9.5,11H11v1.5C11,12.8,11.2,13,11.5,13z"/>
</g>
</svg>
