<?xml version="1.0" encoding="utf-8"?>
<!-- Generator: Adobe Illustrator 20.1.0, SVG Export Plug-In . SVG Version: 6.00 Build 0)  -->
<svg version="1.1" xmlns="http://www.w3.org/2000/svg" xmlns:xlink="http://www.w3.org/1999/xlink" x="0px" y="0px"
	 viewBox="0 0 16 16" style="fill: #666; enable-background:new 0 0 16 16;" xml:space="preserve">
<style type="text/css">
	.st0{display:none;}
	.st1{display:inline;}
</style>
<g id="图层_1" class="st0">
	<g class="st1">
		<path d="M12.4,1H3.6C2.7,1,2,1.7,2,2.6v10.8C2,14.3,2.7,15,3.6,15h8.8c0.9,0,1.6-0.7,1.6-1.6c0-0.3-0.2-0.5-0.5-0.5
			S13,13.1,13,13.4c0,0.3-0.3,0.6-0.6,0.6H3.6C3.3,14,3,13.7,3,13.4V2.6C3,2.3,3.3,2,3.6,2h8.8C12.7,2,13,2.3,13,2.6v3.2
			c0,0.3,0.2,0.5,0.5,0.5S14,6.1,14,5.8V2.6C14,1.7,13.3,1,12.4,1z"/>
		<path d="M11.5,13c0.3,0,0.5-0.2,0.5-0.5V11h1.5c0.3,0,0.5-0.2,0.5-0.5c0-0.3-0.2-0.5-0.5-0.5H12V8.5C12,8.2,11.8,8,11.5,8
			S11,8.2,11,8.5V10H9.5C9.2,10,9,10.2,9,10.5C9,10.8,9.2,11,9.5,11H11v1.5C11,12.8,11.2,13,11.5,13z"/>
	</g>
</g>
<g id="图层_2">
	<g>
		<path d="M8,0C3.6,0,0,3.6,0,8s3.6,8,8,8s8-3.6,8-8S12.4,0,8,0z M8,15c-3.9,0-7-3.1-7-7s3.1-7,7-7s7,3.1,7,7S11.9,15,8,15z"/>
		<path d="M11.2,4.3c-0.1,0-0.1,0-0.2,0L4.8,6.4c-0.5,0.2-0.4,0.9,0.1,1L8,8l0.6,3.2c0.1,0.3,0.3,0.4,0.5,0.4c0.2,0,0.4-0.1,0.5-0.3
			l2.1-6.3C11.8,4.6,11.5,4.3,11.2,4.3z M9.2,9.1L9,7.8L8.8,7.2L8.2,7L6.9,6.8l3.5-1.2L9.2,9.1z"/>
	</g>
</g>
</svg>
