<?xml version="1.0" encoding="utf-8"?>
<!-- Generator: Adobe Illustrator 20.1.0, SVG Export Plug-In . SVG Version: 6.00 Build 0)  -->
<svg version="1.1" xmlns="http://www.w3.org/2000/svg" xmlns:xlink="http://www.w3.org/1999/xlink" x="0px" y="0px"
	 viewBox="0 0 32 32" style="fill: #fff; enable-background:new 0 0 32 32;" xml:space="preserve">
<style type="text/css">
	.st0{display:none;}
	.st1{display:inline;}
</style>
<g id="图层_1" class="st0">
	<g class="st1">
		<g>
			<path d="M24,0H8C6.3,0,5,1.3,5,3v26c0,1.6,1.3,3,3,3h16c1.7,0,3-1.4,3-3V3C27,1.3,25.7,0,24,0z M25,29c0,0.5-0.5,1-1,1H8
				c-0.5,0-1-0.5-1-1V3c0-0.5,0.5-1,1-1h16c0.5,0,1,0.5,1,1V29z"/>
		</g>
		<g>
			<circle cx="16" cy="4.9" r="1"/>
		</g>
		<g>
			<path d="M18,26h-4c-0.5,0-1,0.5-1,1s0.5,1,1,1h4c0.5,0,1-0.5,1-1S18.5,26,18,26z"/>
		</g>
	</g>
</g>
<g id="图层_2" class="st0">
	<g class="st1">
		<g>
			<path d="M28,0H4C2.3,0,1,1.3,1,3v26c0,1.6,1.3,3,3,3h24c1.7,0,3-1.4,3-3V3C31,1.3,29.7,0,28,0z M29,29c0,0.5-0.5,1-1,1H4
				c-0.5,0-1-0.5-1-1V3c0-0.5,0.5-1,1-1h24c0.5,0,1,0.5,1,1V29z"/>
		</g>
		<g>
			<path d="M12,11h8c0.5,0,1-0.5,1-1s-0.5-1-1-1h-8c-0.5,0-1,0.5-1,1S11.5,11,12,11z"/>
		</g>
		<g>
			<path d="M10,17h12c0.5,0,1-0.5,1-1s-0.5-1-1-1H10c-0.5,0-1,0.5-1,1S9.5,17,10,17z"/>
		</g>
		<g>
			<path d="M24,21H8c-0.5,0-1,0.5-1,1s0.5,1,1,1h16c0.5,0,1-0.5,1-1S24.5,21,24,21z"/>
		</g>
	</g>
</g>
<g id="图层_3" class="st0">
	<path class="st1" d="M28,11h-3V6c0-1.7-1.3-3-3-3H4C2.3,3,1,4.3,1,6v19.9c0,0.6,0.5,1,1,1c0.2,0,0.4-0.1,0.6-0.2L7,23h4v2
		c0,1.7,1.3,3,3,3h11l4.4,1.6c0.2,0.2,0.4,0.2,0.6,0.2c0.5,0,1-0.4,1-1V14C31,12.3,29.7,11,28,11z M7,21c-0.5,0-0.9,0.2-1.3,0.5
		L3,23.7V6c0-0.5,0.5-1,1-1h18c0.5,0,1,0.5,1,1v5v2v7c0,0.5-0.5,1-1,1h-9h-2H7z M29,27.4l-3.3-1.2C25.5,26,25.2,26,25,26H14
		c-0.5,0-1-0.5-1-1v-2h9c1.7,0,3-1.3,3-3v-7h3c0.5,0,1,0.5,1,1V27.4z"/>
</g>
<g id="图层_4" class="st0">
	<g class="st1">
		<path d="M31.7,8.5C31.1,7,29.6,6,28,6H7.7L7.6,5.6C7.1,4,5.7,3,4.1,3H1C0.4,3,0,3.4,0,4s0.4,1,1,1h3.1c0.7,0,1.4,0.5,1.6,1.2
			L10,20v0h0l0.5,1.7c0.4,1.4,1.7,2.3,3.2,2.3H26c0.6,0,1-0.4,1-1s-0.4-1-1-1H13.7c-0.6,0-1.1-0.4-1.3-0.9L12.1,20h13.5
			c2.5,0,4.6-1.7,5.1-4.1l1.1-5.1C32,10,32,9.2,31.7,8.5z M29.9,10.3l-1.1,5.1c-0.3,1.5-1.6,2.6-3.2,2.6H11.5L8.4,8H28
			c0.8,0,1.6,0.5,1.9,1.3C30,9.6,30,10,29.9,10.3z"/>
		<circle cx="14.1" cy="27" r="2"/>
		<circle cx="24" cy="27" r="2"/>
	</g>
</g>
<g id="图层_5" class="st0">
	<path class="st1" d="M28,6.8L18,1c-1.2-0.7-2.8-0.7-4,0L4,6.8c-1.2,0.7-2,2-2,3.5v11.5c0,1.4,0.8,2.8,2,3.5L14,31
		c0.6,0.4,1.3,0.5,2,0.5c0.7,0,1.4-0.2,2-0.5l10-5.8c1.2-0.7,2-2,2-3.5V10.2C30,8.8,29.2,7.5,28,6.8z M15,2.7c0.3-0.2,0.7-0.3,1-0.3
		c0.3,0,0.7,0.1,1,0.3l9.7,5.6l-10.6,6.1L5.4,8.3L15,2.7z M5,23.4c-0.6-0.4-1-0.9-1-1.6V10.2c0-0.1,0-0.3,0.1-0.4L15,16.1V29
		c0,0,0,0,0,0L5,23.4z M28,21.8c0,0.7-0.4,1.2-1,1.6L17,29c0,0,0,0,0,0V16.2l11-6.3c0,0.1,0,0.2,0,0.4V21.8z"/>
</g>
<g id="图层_6">
	<g>
		<path d="M28,1.8H4c-1.7,0-3,1.3-3,3v18c0,1.6,1.3,3,3,3h11v3.1h-3c-0.5,0-1,0.5-1,1s0.5,1,1,1h8c0.5,0,1-0.5,1-1s-0.5-1-1-1h-3
			v-3.1h11c1.7,0,3-1.4,3-3v-18C31,3.2,29.7,1.8,28,1.8z M29,22.8c0,0.5-0.5,1-1,1H4c-0.5,0-1-0.5-1-1v-18c0-0.5,0.5-1,1-1h24
			c0.5,0,1,0.5,1,1V22.8z"/>
	</g>
</g>
</svg>
